<?xml version="1.0" encoding="utf-8"?>
<!-- Generator: Adobe Illustrator 22.0.1, SVG Export Plug-In . SVG Version: 6.00 Build 0)  -->
<svg version="1.1" id="Layer_1" xmlns="http://www.w3.org/2000/svg" xmlns:xlink="http://www.w3.org/1999/xlink" x="0px" y="0px"
	 viewBox="0 0 200 20" style="enable-background:new 0 0 200 20;" xml:space="preserve">
<style type="text/css">
	.st0{fill:#FFFFFF;}
</style>
<g>
	<g>
		<g id="XMLID_1_">
			<g>
				<path class="st0" d="M40.5,17.9l-4-10.9c0-0.1-0.1-0.3-0.1-0.5c0-0.5,0.4-0.9,0.9-0.9c0.5,0,0.8,0.3,1,0.8l3.2,9.5l3.2-9.5
					C45,6,45.3,5.6,45.8,5.6H46c0.5,0,0.8,0.3,1,0.8l3.2,9.5l3.2-9.5c0.1-0.4,0.4-0.7,0.9-0.7c0.5,0,0.9,0.4,0.9,0.9
					c0,0.2-0.1,0.4-0.1,0.5l-3.9,11c-0.4,0.4-0.8,0.7-1.3,0.7H50c-0.5,0-0.9-0.3-1-0.8l-3.1-9.3L42.6,18c-0.2,0.6-0.5,0.8-1,0.8l0,0
					C41,18.9,40.6,18.5,40.5,17.9"/>
				<path class="st0" d="M69,6.5c0-0.5,0.4-1,0.9-1c0.5,0,1,0.4,1,1v2.3c0.9-2.2,3.1-3.1,4.4-3.1c0.6,0,0.9,0.4,0.9,1
					c0,0.5-0.3,0.9-0.8,0.9C73,8,71,9.9,71,13.6v4.3c0,0.5-0.4,0.9-0.9,0.9c-0.5,0-0.9-0.4-0.9-0.9L69,6.5"/>
				<path class="st0" d="M82.6,19c-3.4,0-6.4-2.7-6.4-6.7v-0.1c0-3.7,2.6-6.7,6.1-6.7c3.8,0,5.8,3.1,5.8,6.5c0,0.5-0.4,0.9-0.9,0.9
					h-9.1c0.3,2.8,2.2,4.3,4.4,4.3c1.6,0,2.7-0.6,3.7-1.5c0.1-0.1,0.3-0.2,0.5-0.2c0.5,0,0.8,0.4,0.8,0.8c0,0.2-0.1,0.4-0.3,0.6
					C86,18.1,84.8,19,82.6,19 M86.2,11.6c-0.2-2.4-1.6-4.3-4-4.3c-2.3,0-3.9,1.9-4.1,4.3C78.2,11.6,86.2,11.6,86.2,11.6z"/>
				<path class="st0" d="M55.3,15L55.3,15c0-2.8,2.3-4.2,5.5-4.2c1.7,0,2.8,0.2,4,0.5v-0.4c0-2.4-1.5-3.4-3.8-3.4
					c-1.4,0-2.1,0.2-3,0.6c0,0-0.1,0-0.2,0c-0.4,0-0.8-0.4-0.8-0.8s0.2-0.6,0.5-0.8c1.3-0.5,2.3-0.7,3.9-0.7c1.9,0,3.1,0.5,4.2,1.5
					c0.9,0.9,1.4,2.2,1.4,3.8V18c0,0.5-0.4,0.9-0.9,0.9c-0.5,0-0.9-0.4-0.9-0.9v-1.3c-0.9,1.1-2.4,2.3-4.6,2.3
					C57.7,19,55.3,17.6,55.3,15 M64.8,14v-1.3c-0.9-0.3-2.3-0.5-3.8-0.5c-2.5,0-3.8,1-3.8,2.7l0,0c0,1.7,1.6,2.6,3.2,2.6
					C63,17.4,64.8,16,64.8,14"/>
				<path class="st0" d="M5.4,6.4C5,5.5,4,5.1,3,5.5S1.7,7.1,2.1,8l4.1,9c0.6,1.5,1.4,2.2,2.6,2.2c1.4,0,2-0.8,2.6-2.2
					c0,0,3.5-7.8,3.5-7.9s0.1-0.3,0.5-0.3c0.3,0,0.6,0.2,0.6,0.6v7.5c0,1.1,0.6,2.2,2,2.2c1.3,0,2-0.9,2-2.2v-6.2c0-1.3,0.8-2,2.1-2
					c1.1,0,2,0.8,2,2v6.2c0,1.1,0.6,2.2,2,2.2s2-0.9,2-2.2v-6.2c0-1.3,0.8-2,2.1-2c1.1,0,2,0.8,2,2v6.2c0,1.1,0.6,2.2,2,2.2
					c1.3,0,2-0.9,2-2.2V9.8c0-2.6-2.1-4.4-4.6-4.4s-4.1,1.8-4.1,1.8c-0.8-1.1-2-1.8-3.9-1.8c-2.1,0-3.9,1.8-3.9,1.8
					c-0.8-1.1-2.3-1.8-3.4-1.8c-1.9,0-3.2,0.8-4.2,2.9L9,14.4L5.4,6.4"/>
				<path class="st0" d="M88.2,7.2L88.2,7.2c0-0.9,0.7-1.7,1.7-1.7s1.7,0.7,1.7,1.7l0,0c0,0.9-0.7,1.7-1.7,1.7S88.2,8.1,88.2,7.2
					 M91.3,7.2L91.3,7.2c0-0.7-0.5-1.4-1.4-1.4c-0.7,0-1.4,0.6-1.4,1.4l0,0c0,0.7,0.5,1.4,1.4,1.4S91.3,7.9,91.3,7.2"/>
				<path class="st0" d="M89.2,6.5c0-0.1,0.1-0.2,0.2-0.2h0.7c0.2,0,0.4,0.1,0.4,0.2c0.1,0.1,0.1,0.2,0.1,0.3l0,0
					c0,0.2-0.2,0.4-0.4,0.5l0.2,0.3l0.2,0.1c0,0.1-0.1,0.2-0.2,0.2s-0.1,0-0.2-0.1l-0.3-0.4h-0.3v0.3c0,0.1-0.1,0.2-0.2,0.2
					s-0.2-0.1-0.2-0.2L89.2,6.5C89.2,6.5,89.2,6.5,89.2,6.5z M90,7.2c0.2,0,0.3-0.1,0.3-0.2l0,0c0-0.1-0.1-0.2-0.3-0.2h-0.4v0.4
					C89.6,7.2,90,7.2,90,7.2z"/>
				<path class="st0" d="M193.5,7.2L193.5,7.2c0-0.9,0.7-1.7,1.7-1.7s1.7,0.7,1.7,1.7l0,0c0,0.9-0.7,1.7-1.7,1.7
					S193.5,8.1,193.5,7.2 M196.5,7.2L196.5,7.2c0-0.7-0.5-1.4-1.4-1.4c-0.7,0-1.4,0.6-1.4,1.4l0,0c0,0.7,0.5,1.4,1.4,1.4
					C196,8.5,196.5,7.9,196.5,7.2"/>
				<path class="st0" d="M194.4,6.5c0-0.1,0.1-0.2,0.2-0.2h0.7c0.2,0,0.4,0.1,0.5,0.2s0.1,0.2,0.1,0.3l0,0c0,0.2-0.1,0.4-0.4,0.5
					l0.2,0.3l0.1,0.1c0,0.1-0.1,0.2-0.2,0.2c-0.1,0-0.1,0-0.2-0.1l-0.3-0.4h-0.3v0.3c0,0.1-0.1,0.2-0.2,0.2c-0.1,0-0.2-0.1-0.2-0.2
					L194.4,6.5C194.4,6.5,194.4,6.5,194.4,6.5z M195.2,7.2c0.2,0,0.3-0.1,0.3-0.2l0,0c0-0.1-0.1-0.2-0.3-0.2h-0.4v0.4
					C194.8,7.2,195.2,7.2,195.2,7.2z"/>
				<path class="st0" d="M115.4,1.7c0-0.6,0.5-1,1.1-1s1.1,0.4,1.1,1v0.3c0,0.6-0.5,1-1.1,1s-1.1-0.4-1.1-1V1.7z M115.5,6.5
					c0-0.5,0.4-0.9,0.9-0.9s1,0.4,1,0.9v11.3c0,0.5-0.4,1-0.9,1c-0.5,0-0.9-0.4-0.9-1L115.5,6.5L115.5,6.5z"/>
				<path class="st0" d="M119.7,6.5c0-0.5,0.4-0.9,0.9-0.9c0.5,0,1,0.4,1,0.9V9c0.9-2.2,2.8-3.4,4.4-3.4c0.6,0,1,0.4,1,1
					c0,0.5-0.3,0.9-0.8,0.9c-2.5,0.3-4.5,2.2-4.5,6v4.4c0,0.5-0.4,1-0.9,1s-0.9-0.4-0.9-1L119.7,6.5L119.7,6.5z"/>
				<path class="st0" d="M132.2,17.9l-4-10.9c0-0.2-0.1-0.3-0.1-0.5c0-0.5,0.4-0.9,0.9-0.9s0.8,0.3,1,0.8l3.2,9.7l3.2-9.7
					c0.1-0.4,0.4-0.8,0.9-0.8h0.1c0.5,0,0.8,0.3,1,0.8l3.2,9.7l3.2-9.7c0.1-0.4,0.4-0.7,0.9-0.7c0.5,0,0.9,0.4,0.9,0.9
					c0,0.2-0.1,0.4-0.1,0.5l-4,10.8c-0.2,0.6-0.6,0.9-1,0.9h-0.1c-0.5,0-0.9-0.3-1-0.9l-3.2-9.4l-3.2,9.5c-0.2,0.6-0.5,0.9-1,0.9
					l0,0C132.7,18.9,132.4,18.5,132.2,17.9"/>
				<path class="st0" d="M161.6,15.3V7.5h-1c-0.4,0-0.8-0.4-0.8-0.8c0-0.5,0.4-0.8,0.8-0.8h1V2.7c0-0.5,0.4-1,0.9-1c0.5,0,1,0.4,1,1
					v3.1h3.3c0.5,0,0.9,0.4,0.9,0.8c0,0.5-0.4,0.8-0.9,0.8h-3.3v7.6c0,1.6,0.9,2.2,2.2,2.2c0.7,0,1-0.2,1.1-0.2
					c0.4,0,0.8,0.4,0.8,0.8c0,0.3-0.2,0.6-0.5,0.7c-0.5,0.2-1.1,0.3-2,0.3C163.1,18.9,161.6,17.8,161.6,15.3"/>
				<path class="st0" d="M168,12.3L168,12.3c0-3.7,2.9-6.8,6.7-6.8c2.2,0,3.5,0.8,4.7,1.9c0.1,0.1,0.3,0.4,0.3,0.7
					c0,0.5-0.4,0.9-0.9,0.9c-0.2,0-0.5-0.1-0.6-0.2c-0.9-0.8-2-1.6-3.4-1.6c-2.7,0-4.6,2.3-4.6,5v0.1c0,2.8,2.1,5,4.7,5
					c1.5,0,2.7-0.7,3.5-1.6c0.1-0.1,0.3-0.2,0.5-0.2c0.5,0,0.9,0.4,0.9,0.9c0,0.2-0.1,0.4-0.2,0.6c-1.3,1.3-2.7,2.1-4.9,2.1
					C170.7,19,168,15.9,168,12.3"/>
				<path class="st0" d="M181.4,1.2c0-0.5,0.4-0.9,0.9-0.9c0.5,0,1,0.4,1,0.9V8c0.8-1.5,2.2-2.6,4.3-2.6c3.1,0,4.9,2.1,4.9,5.1v7.2
					c0,0.5-0.4,1-0.9,1c-0.5,0-1-0.4-1-1V11c0-2.4-1.4-3.9-3.5-3.9c-2.2,0-3.9,1.7-3.9,4v6.7c0,0.5-0.4,1-0.9,1c-0.5,0-1-0.4-1-1
					V1.2H181.4z"/>
				<path class="st0" d="M101.9,15L101.9,15c0-2.8,2.3-4.2,5.5-4.2c1.7,0,2.8,0.2,4,0.5v-0.4c0-2.4-1.5-3.4-3.8-3.4
					c-1.5-0.1-2.2,0.1-3.1,0.5c-0.1,0.1-0.2,0.1-0.3,0.1c-0.4,0-0.8-0.4-0.8-0.8c0-0.4,0.1-0.6,0.5-0.8c1.3-0.5,2.3-0.7,3.9-0.7
					c1.9,0,3.1,0.5,4.2,1.5c0.9,0.9,1.4,2.2,1.4,3.8V18c0,0.5-0.4,0.9-0.9,0.9c-0.5,0-0.9-0.4-0.9-0.9v-1.3
					c-0.9,1.1-2.4,2.3-4.6,2.3C104.3,19,101.9,17.6,101.9,15 M111.3,14v-1.3c-0.9-0.3-2.2-0.5-3.8-0.5c-2.5,0-3.8,1-3.8,2.7l0,0
					c0,1.7,1.6,2.6,3.2,2.6C109.4,17.4,111.3,16,111.3,14"/>
				<path class="st0" d="M147.1,15L147.1,15c0-2.8,2.3-4.2,5.5-4.2c1.7,0,2.8,0.2,4,0.5v-0.4c0-2.4-1.5-3.4-3.8-3.4
					c-1.4,0-2.1,0.2-3,0.6c-0.1,0.1-0.2,0.1-0.3,0.1c-0.4,0-0.8-0.4-0.8-0.8s0.2-0.6,0.5-0.8c1.3-0.5,2.3-0.7,3.9-0.7
					c1.9,0,3.1,0.5,4.2,1.5c0.9,0.9,1.4,2.2,1.4,3.8v7.1c0,0.5-0.4,0.9-0.9,0.9s-0.9-0.4-0.9-0.9v-1.3c-0.9,1.1-2.4,2.3-4.6,2.3
					C149.5,19,147.1,17.6,147.1,15 M156.6,14v-1.3c-0.9-0.3-2.3-0.5-3.8-0.5c-2.5,0-3.8,1-3.8,2.7l0,0c0,1.7,1.6,2.6,3.2,2.6
					C154.7,17.4,156.6,16,156.6,14"/>
			</g>
		</g>
	</g>
</g>
</svg>
