<?xml version="1.0" encoding="utf-8"?>
<!-- Generator: Adobe Illustrator 22.0.1, SVG Export Plug-In . SVG Version: 6.00 Build 0)  -->
<svg version="1.1" id="Layer_1" xmlns="http://www.w3.org/2000/svg" xmlns:xlink="http://www.w3.org/1999/xlink" x="0px" y="0px"
	 viewBox="0 0 220 125" style="enable-background:new 0 0 220 125;" xml:space="preserve">
<style type="text/css">
	.st0{fill:#2A3A46;}
</style>
<symbol  id="New_Symbol_18" viewBox="-31.9 -34 63.8 68">
	<g>
		<path class="st0" d="M-29.6-11.8c-0.4,0-0.8,0.1-1.1,0.3c-0.7,0.4-1.2,1.2-1.2,2.2l0.1,26.1c0,1.4,0.9,3,2.2,3.7l22.8,13
			C-5.9,34-5,34-4.3,33.6s1.2-1.2,1.2-2.2V21.3c0-1.4-0.9-3-2.2-3.7l-11-6.3c-0.3-0.2-0.7-0.8-0.7-1.2l0,0l-0.1-12.7
			c0-1.4-0.9-3-2.2-3.7l-9-5C-28.6-11.6-29.1-11.8-29.6-11.8z M-6.1,30.5l-22-12.5c-0.3-0.2-0.7-0.8-0.7-1.2l-0.1-25.1l8.1,4.6
			c0.3,0.2,0.7,0.8,0.7,1.1l0.1,12.7c0,1.4,0.9,3,2.2,3.7l11,6.3c0.3,0.2,0.7,0.8,0.7,1.2L-6.1,30.5z"/>
		<path class="st0" d="M29.6-11.8c-0.4,0-0.9,0.1-1.4,0.4l-9,5C18-5.7,17-4.1,17-2.7v12.8c0,0.4-0.4,1-0.7,1.2l-11,6.3
			c-1.2,0.7-2.2,2.3-2.2,3.8v10.1c0,1,0.4,1.8,1.2,2.2C5,34.1,6,34.1,6.8,33.6l22.8-13c1.2-0.7,2.2-2.3,2.2-3.7l0.1-26.1
			c0-1-0.4-1.8-1.2-2.2C30.4-11.7,30-11.8,29.6-11.8z M20,10.1l0.1-12.7c0-0.4,0.4-1,0.7-1.1l8.1-4.6l-0.1,25.1c0,0.4-0.4,1-0.7,1.2
			l-22,12.5v-9.1c0-0.4,0.4-1,0.7-1.2l11-6.3C19.1,13.2,20,11.6,20,10.1L20,10.1z"/>
		<path class="st0" d="M0.3-34c-0.8,0-1.5,0.2-2.2,0.5l-23.7,13.1c-0.9,0.5-1.4,1.3-1.4,2.1c0,0.9,0.5,1.7,1.3,2.2l9,5.2
			c1.3,0.7,3.2,0.8,4.4,0.1l11.5-6.3c0.4-0.2,1.1-0.2,1.5,0l0,0L12-10.5c1.3,0.7,3.2,0.7,4.4,0l9.3-5.2c0.9-0.5,1.4-1.3,1.4-2.1
			s-0.5-1.6-1.3-2.2L2.6-33.5C1.9-33.9,1.1-34,0.3-34z M-23.3-18.2l22.9-12.7c0.3-0.2,1.1-0.2,1.5,0l22.4,13.1l-8.4,4.7
			c-0.3,0.2-1.1,0.2-1.4,0L2.2-19.7c-1.3-0.7-3.1-0.8-4.4-0.1l-11.5,6.3c-0.4,0.2-1.1,0.2-1.5,0L-23.3-18.2z"/>
	</g>
</symbol>
<g id="XMLID_198_">
	<g>
		<g id="XMLID_199_">
			<g>
				<g id="New_Symbol_44_39_">
					<g>
						<path class="st0" d="M1.3,105.2H3L7.1,117l4-11.8h1.3l4,11.8l4.1-11.8h1.7L17,119.5h-1.6L11.6,108l-3.9,11.4H6.4L1.3,105.2z"
							/>
						<path class="st0" d="M22.2,114.1L22.2,114.1c0-3.1,2.3-5.5,5.5-5.5s5.4,2.4,5.4,5.4l0,0c0,2.9-2.3,5.5-5.5,5.5
							C24.6,119.5,22.2,117.1,22.2,114.1z M31.5,114.1L31.5,114.1c0-2.2-1.7-4.2-4-4.2s-3.9,1.8-3.9,4.1l0,0c0,2.2,1.7,4.1,3.9,4.1
							C30,118.2,31.5,116.3,31.5,114.1z"/>
						<path class="st0" d="M35.6,108.8h1.5v2.7c0.8-1.7,2.2-3.1,4.3-2.9v1.7h-0.1c-2.2,0-4.2,1.7-4.2,4.9v4.2h-1.5
							C35.6,119.3,35.6,108.8,35.6,108.8z"/>
						<path class="st0" d="M43.8,104.5h1.5v10.3l5.6-5.9h1.9l-4.4,4.5l4.5,6H51l-3.8-4.9l-2.1,2.1v2.7h-1.5L43.8,104.5
							C43.7,104.5,43.8,104.5,43.8,104.5z"/>
						<path class="st0" d="M54.1,118l0.8-1.1c1.1,0.9,2.3,1.3,3.6,1.3s2.1-0.7,2.1-1.7l0,0c0-1-1.2-1.4-2.5-1.8
							c-1.7-0.4-3.5-1-3.5-2.9l0,0c0-1.8,1.4-3.1,3.6-3.1c1.2,0,2.7,0.4,3.8,1.1l-0.7,1.1c-1-0.7-2.1-1-3.2-1c-1.2,0-2,0.7-2,1.5
							l0,0c0,1,1.3,1.3,2.7,1.8c1.5,0.4,3.4,1.1,3.4,3.1l0,0c0,2-1.7,3.2-3.8,3.2C56.8,119.5,55.2,118.9,54.1,118z"/>
						<path class="st0" d="M64.9,108.8h1.5v2.1c0.9-1.2,2.1-2.3,4.1-2.3c2.4,0,5,2,5,5.4l0,0c0,3.4-2.4,5.4-5,5.4
							c-1.9,0-3.2-1-4.1-2.2v5.3h-1.5V108.8z M74,114.1L74,114.1c0-2.4-1.7-4.1-3.8-4.1c-1.9,0-3.9,1.7-3.9,4.1l0,0
							c0,2.4,1.8,4.1,3.9,4.1C72.3,118.1,74,116.6,74,114.1z"/>
						<path class="st0" d="M77.3,116.3L77.3,116.3c0-2.2,1.8-3.4,4.5-3.4c1.3,0,2.2,0.2,3.3,0.4V113c0-1.9-1.1-2.8-3.2-2.8
							c-1.2,0-2.2,0.3-3.2,0.8l-0.4-1.2c1.1-0.6,2.2-0.9,3.9-0.9c1.4,0,2.5,0.3,3.4,1.1c0.7,0.7,1.1,1.7,1.1,3.1v6.4h-1.4v-1.5
							c-0.7,0.9-1.9,1.8-3.9,1.8C79.3,119.5,77.3,118.4,77.3,116.3z M85,115.4v-1c-0.8-0.2-1.8-0.4-3.1-0.4c-1.9,0-3.1,0.9-3.1,2.1
							l0,0c0,1.3,1.2,2.1,2.5,2.1C83.5,118.3,85,117.1,85,115.4z"/>
						<path class="st0" d="M88.7,114.1L88.7,114.1c0-3.1,2.3-5.5,5.4-5.5c2,0,3.3,0.8,4.2,1.9l-1,1.1c-0.8-0.9-1.8-1.5-3.2-1.5
							c-2.1,0-3.8,1.8-3.8,4.1l0,0c0,2.2,1.7,4.1,3.9,4.1c1.3,0,2.3-0.7,3.2-1.5l1,0.9c-1,1.1-2.3,2-4.3,2
							C91.1,119.5,88.7,117.1,88.7,114.1z"/>
						<path class="st0" d="M99.8,114.1L99.8,114.1c0-3.1,2.1-5.5,5.1-5.5c3.2,0,4.9,2.4,4.9,5.5c0,0.2,0,0.3,0,0.6h-8.3
							c0.2,2.2,1.8,3.6,3.8,3.6c1.4,0,2.4-0.6,3.3-1.4l1,0.9c-1,1.1-2.3,1.9-4.3,1.9C102.2,119.5,99.8,117.3,99.8,114.1z
							 M108.2,113.4c-0.1-1.9-1.2-3.6-3.4-3.6c-1.8,0-3.2,1.5-3.4,3.6H108.2z"/>
						<path class="st0" d="M117.4,112.2L117.4,112.2c0-4,2.9-7.4,7.2-7.4c4.3,0,7.2,3.4,7.2,7.3l0,0c0,4-2.9,7.3-7.2,7.3
							C120.4,119.5,117.4,116.2,117.4,112.2z M130.2,112.2L130.2,112.2c0-3.3-2.3-5.9-5.6-5.9s-5.5,2.5-5.5,5.9l0,0
							c0,3.3,2.3,5.9,5.6,5.9C128,118.1,130.2,115.4,130.2,112.2z"/>
						<path class="st0" d="M134.8,105.2h1.4l8.8,11.4v-11.4h1.5v14.1h-1l-9.2-11.6v11.6h-1.5L134.8,105.2L134.8,105.2z"/>
						<path class="st0" d="M150.5,105.2h10.3v1.4h-8.6v4.9h7.7v1.4h-7.7v5h8.7v1.4h-10.4L150.5,105.2L150.5,105.2z"/>
						<path class="st0" d="M163.1,105.5h-1.2v-0.3h2.9v0.3h-1.2v3.3h-0.4v-3.3H163.1z"/>
						<path class="st0" d="M165.6,105.2h0.4l1.3,2l1.3-2h0.4v3.8h-0.4V106l-1.3,2l0,0l-1.3-1.9v2.9h-0.4V105.2L165.6,105.2z"/>
						<path class="st0" d="M177.2,113.3v-8.1h1.5v8.1c0,3.1,1.7,4.7,4.4,4.7c2.5,0,4.3-1.5,4.3-4.7v-8.2h1.5v8.1
							c0,4.2-2.3,6.3-6,6.3C179.6,119.5,177.2,117.4,177.2,113.3z"/>
						<path class="st0" d="M192.4,105.2h10.3v1.4H194v4.9h7.7v1.4H194v5h8.7v1.4h-10.4V105.2L192.4,105.2z"/>
						<path class="st0" d="M205.5,105.2h1.5l5.2,7.7l5.2-7.7h1.5v14.1h-1.5v-11.5l-5.2,7.6h-0.1l-5.2-7.5v11.5h-1.5v-14.2H205.5
							L205.5,105.2z"/>
					</g>
				</g>
			</g>
		</g>
	</g>
</g>
<use xlink:href="#New_Symbol_18"  width="63.8" height="68" id="XMLID_197_" x="-31.9" y="-34" transform="matrix(1.1257 0 0 -1.1257 111.1171 38.4981)" style="overflow:visible;"/>
</svg>
